# xmcd
#
# Track frame offsets:
#	150
#	16680
#	32277
#	50222
#	67935
#	93662
#	120572
#	145395
#	162997
#	186967
#	212845
#	226850
#	244470
#	269382
#
# Disc length: 3907 seconds
#
# Revision: 1
# Processed by: cddbd v1.5.2PL0 Copyright (c) Steve Scherf et al.
# Submitted via: audiograbber 1.83.01
#
DISCID=c40f410e
DTITLE=Hülya Polat - Aha
DYEAR=2007
DGENRE=
TTITLE0=Ya Bidur
TTITLE1=Sultaniyim Kizlarin
TTITLE2=Fati Sirti
TTITLE3=Yayladan Gelir Atlar
TTITLE4=Huzur Evi
TTITLE5=Melyat Cevulur
TTITLE6=Agit
TTITLE7=Aha
TTITLE8=Bekar Bekar Ölmeli
TTITLE9=Yandi Yüregim Yandi
TTITLE10=Vakfikebir Görele
TTITLE11=Sip Sip
TTITLE12=Lazona
TTITLE13=bizim köyler
EXTD=
EXTT0=
EXTT1=
EXTT2=
EXTT3=
EXTT4=
EXTT5=
EXTT6=
EXTT7=
EXTT8=
EXTT9=
EXTT10=
EXTT11=
EXTT12=
EXTT13=
PLAYORDER=
